<svg xmlns="http://www.w3.org/2000/svg" version="1.1" xmlns:xlink="http://www.w3.org/1999/xlink" xmlns:svgjs="http://svgjs.dev/svgjs" width="1000" height="315" viewBox="0 0 1000 315"><g transform="matrix(1,0,0,1,-0.6060606060606233,-0.44171475194340815)"><svg viewBox="0 0 396 125" data-background-color="#ffffff" preserveAspectRatio="xMidYMid meet" height="315" width="1000" xmlns="http://www.w3.org/2000/svg" xmlns:xlink="http://www.w3.org/1999/xlink"><g id="tight-bounds" transform="matrix(1,0,0,1,0.2400000000000091,0.1752836317235733)"><svg viewBox="0 0 395.52 124.64943273655287" height="124.64943273655287" width="395.52"><g><svg viewBox="0 0 637.7848519216495 200.99999999999997" height="124.64943273655287" width="395.52"><g><rect width="8.320827179381443" height="200.99999999999997" x="245.5683525773196" y="0" fill="#09bc8a" opacity="1" stroke-width="0" stroke="transparent" fill-opacity="1" class="rect-r$-0" data-fill-palette-color="primary" rx="1%" id="r$-0" data-palette-color="#09bc8a"></rect></g><g transform="matrix(1,0,0,1,275.6714498597938,0.4999999999999858)"><svg viewBox="0 0 362.1134020618557 200" height="200" width="362.1134020618557"><g id="textblocktransform"><svg viewBox="0 0 362.1134020618557 200" height="200" width="362.1134020618557" id="textblock"><g><svg viewBox="0 0 362.1134020618557 200" height="200" width="362.1134020618557"><g transform="matrix(1,0,0,1,0,0)"><svg width="362.1134020618557" viewBox="0.850000000000005 -35.15 140.5 74.6" height="200" data-palette-color="#09bc8a"><svg></svg><svg></svg><g class="wordmark-text-0" data-fill-palette-color="primary" id="text-0"><path d="M17.5-35.15v0c1.167 0 2.3 0.033 3.4 0.1 1.1 0.067 2.167 0.173 3.2 0.32 1.033 0.153 2.033 0.363 3 0.63v0l-0.45 3.3c-1.033-0.1-2.073-0.183-3.12-0.25-1.053-0.067-2.063-0.11-3.03-0.13-0.967-0.013-1.883-0.02-2.75-0.02v0c-1.867 0-3.44 0.173-4.72 0.52-1.287 0.353-2.313 1.03-3.08 2.03-0.767 1-1.323 2.433-1.67 4.3-0.353 1.867-0.53 4.3-0.53 7.3v0c0 3.4 0.233 6.107 0.7 8.12 0.467 2.02 1.25 3.48 2.35 4.38 1.1 0.9 2.567 1.35 4.4 1.35v0c1.267 0 2.427-0.183 3.48-0.55 1.047-0.367 2.03-0.843 2.95-1.43 0.913-0.58 1.803-1.187 2.67-1.82v0l0.6 2.7c-0.6 0.7-1.423 1.433-2.47 2.2-1.053 0.767-2.28 1.417-3.68 1.95-1.4 0.533-2.983 0.8-4.75 0.8v0c-2.567 0-4.657-0.643-6.27-1.93-1.62-1.28-2.797-3.247-3.53-5.9-0.733-2.647-1.1-6.037-1.1-10.17v0c0-4.567 0.46-8.143 1.38-10.73 0.913-2.58 2.43-4.403 4.55-5.47 2.113-1.067 4.937-1.6 8.47-1.6zM23.7-19.95h4.3v19.95h-3.2l-0.7-5.1-0.4-1zM44.65-34.5h4.6c0.4 0 0.75 0.107 1.05 0.32 0.3 0.22 0.5 0.513 0.6 0.88v0l11.1 33.3h-4.55l-8.95-28.3c-0.133-0.467-0.273-0.943-0.42-1.43-0.153-0.48-0.297-0.937-0.43-1.37v0h-1.4c-0.133 0.433-0.267 0.89-0.4 1.37-0.133 0.487-0.283 0.963-0.45 1.43v0l-8.95 28.3h-4.55l11.1-33.3c0.1-0.367 0.3-0.66 0.6-0.88 0.3-0.213 0.65-0.32 1.05-0.32zM38.15-14.6h17.5v3.8h-17.5zM94.5-34.5h4.95c1.2 0 1.8 0.617 1.8 1.85v0l1.45 32.65h-4.4l-1.25-30.85h-1.05l-7.7 25.45c-0.267 1-0.9 1.5-1.9 1.5v0h-3.95c-1.033 0-1.7-0.5-2-1.5v0l-7.7-25.45h-1l-1.2 30.85h-4.4l1.35-32.65c0.067-1.233 0.683-1.85 1.85-1.85v0h5c0.933 0 1.55 0.5 1.85 1.5v0l6.45 21.05c0.267 0.767 0.493 1.533 0.68 2.3 0.18 0.767 0.387 1.55 0.62 2.35v0h0.9c0.233-0.8 0.45-1.583 0.65-2.35 0.2-0.767 0.417-1.567 0.65-2.4v0l6.45-20.95c0.267-1 0.9-1.5 1.9-1.5zM117.05-34.55v0c1.667 0 3.34 0 5.02 0 1.687 0 3.353 0.023 5 0.07 1.653 0.053 3.247 0.13 4.78 0.23v0l-0.2 3.45h-13.85c-1.033 0-1.793 0.257-2.28 0.77-0.48 0.52-0.72 1.363-0.72 2.53v0 20.5c0 1.167 0.24 2.017 0.72 2.55 0.487 0.533 1.247 0.8 2.28 0.8v0h13.85l0.2 3.4c-1.533 0.1-3.127 0.167-4.78 0.2-1.647 0.033-3.313 0.06-5 0.08-1.68 0.013-3.353 0.02-5.02 0.02v0c-2.033 0-3.643-0.543-4.83-1.63-1.18-1.08-1.787-2.537-1.82-4.37v0-22.6c0.033-1.867 0.64-3.333 1.82-4.4 1.187-1.067 2.797-1.6 4.83-1.6zM111.3-16.45v-3.55h18.4v3.55z" fill="#09bc8a" fill-rule="nonzero" stroke="none" stroke-width="1" stroke-linecap="butt" stroke-linejoin="miter" stroke-miterlimit="10" stroke-dasharray="" stroke-dashoffset="0" font-family="none" font-weight="none" font-size="none" text-anchor="none" style="mix-blend-mode: normal" data-fill-palette-color="primary" opacity="1"></path><path transform="translate(0,38.8)" d="M25.05-34.5h4.55l-10.45 33.25c-0.133 0.333-0.35 0.623-0.65 0.87-0.3 0.253-0.65 0.38-1.05 0.38v0h-4.45c-0.433 0-0.8-0.127-1.1-0.38-0.3-0.247-0.5-0.537-0.6-0.87v0l-10.45-33.25h4.55l8.15 27.35c0.167 0.633 0.343 1.257 0.53 1.87 0.18 0.62 0.337 1.247 0.47 1.88v0h1.35c0.167-0.633 0.333-1.267 0.5-1.9 0.167-0.633 0.35-1.267 0.55-1.9v0zM42-34.5h4.6c0.4 0 0.75 0.107 1.05 0.32 0.3 0.22 0.5 0.513 0.6 0.88v0l11.1 33.3h-4.55l-8.95-28.3c-0.133-0.467-0.273-0.943-0.42-1.43-0.153-0.48-0.297-0.937-0.43-1.37v0h-1.4c-0.133 0.433-0.267 0.89-0.4 1.37-0.133 0.487-0.283 0.963-0.45 1.43v0l-8.95 28.3h-4.55l11.1-33.3c0.1-0.367 0.3-0.66 0.6-0.88 0.3-0.213 0.65-0.32 1.05-0.32zM35.5-14.6h17.5v3.8h-17.5zM84.45-34.5h4.4v21.3c0 3.333-0.4 6.017-1.2 8.05-0.8 2.033-2.1 3.507-3.9 4.42-1.8 0.92-4.217 1.38-7.25 1.38v0c-3.1 0-5.583-0.46-7.45-1.38-1.867-0.913-3.217-2.387-4.05-4.42-0.833-2.033-1.25-4.717-1.25-8.05v0-21.3h4.4v21.3c0 2.467 0.26 4.423 0.78 5.87 0.513 1.453 1.37 2.487 2.57 3.1 1.2 0.62 2.8 0.93 4.8 0.93v0c2 0 3.593-0.31 4.78-0.93 1.18-0.613 2.037-1.647 2.57-3.1 0.533-1.447 0.8-3.403 0.8-5.87v0zM97.2-34.5h4.35v27.5c0 1.133 0.277 1.967 0.83 2.5 0.547 0.533 1.387 0.8 2.52 0.8v0h12.45l0.2 3.4c-2.167 0.167-4.373 0.267-6.62 0.3-2.253 0.033-4.497 0.05-6.73 0.05v0c-2.533 0-4.333-0.617-5.4-1.85-1.067-1.233-1.6-2.783-1.6-4.65v0zM125.8-34.5h4.4v34.5h-4.4zM114.7-34.5h26.65v3.9h-26.65z" fill="#09bc8a" fill-rule="nonzero" stroke="none" stroke-width="1" stroke-linecap="butt" stroke-linejoin="miter" stroke-miterlimit="10" stroke-dasharray="" stroke-dashoffset="0" font-family="none" font-weight="none" font-size="none" text-anchor="none" style="mix-blend-mode: normal" data-fill-palette-color="primary" opacity="1"></path></g></svg></g></svg></g></svg></g></svg></g><g transform="matrix(1,0,0,1,0,34.48310567010307)"><svg viewBox="0 0 223.78608247422682 132.03378865979383" height="132.03378865979383" width="223.78608247422682"><g><svg version="1.1" xmlns="http://www.w3.org/2000/svg" xmlns:xlink="http://www.w3.org/1999/xlink" x="0" y="0" viewBox="0 0 100 59" enable-background="new 0 0 100 59" xml:space="preserve" height="132.03378865979383" width="223.78608247422682" class="icon-icon-0" data-fill-palette-color="accent" id="icon-0"><path d="M97.901 18l-0.003 0.001C96.896 7.895 88.372 0 78 0c-3.855 0-7.444 1.11-10.498 3H32.498C29.444 1.11 25.855 0 22 0 11.628 0 3.104 7.895 2.102 18.001L2.099 18C1.751 22.175 0 50.691 0 51c0 4.418 3.581 8 8 8 18.377 0 25.943-15.686 28.666-24h26.668C66.057 43.314 73.623 59 92 59c4.419 0 8-3.582 8-8C100 50.691 98.249 22.175 97.901 18zM22 32c-6.629 0-12-5.373-12-12S15.371 8 22 8s12 5.373 12 12S28.629 32 22 32zM78 32c-6.629 0-12-5.373-12-12S71.371 8 78 8s12 5.373 12 12S84.629 32 78 32z" fill="#09bc8a" data-fill-palette-color="accent"></path><polygon points="31,17 25,17 25,11 19,11 19,17 13,17 13,23 19,23 19,29 25,29 25,23 31,23 " fill="#09bc8a" data-fill-palette-color="accent"></polygon><path d="M78 16c0 2.21-1.79 4-4 4-2.205 0-4-1.79-4-4s1.795-4 4-4C76.21 12 78 13.79 78 16z" fill="#09bc8a" data-fill-palette-color="accent"></path><path d="M86 24c0 2.21-1.79 4-4 4-2.205 0-4-1.79-4-4s1.795-4 4-4C84.21 20 86 21.79 86 24z" fill="#09bc8a" data-fill-palette-color="accent"></path></svg></g></svg></g></svg></g><defs></defs></svg><rect width="395.52" height="124.64943273655287" fill="none" stroke="none" visibility="hidden"></rect></g></svg></g></svg>